<svg id="Layer_1" data-name="Layer 1" xmlns="http://www.w3.org/2000/svg" viewBox="0 0 22 18"><defs><style>.cls-1{fill:#fff;}</style></defs><title>Artboard 1</title><path class="cls-1" d="M19.21,18H2.79A2.79,2.79,0,0,1,0,15.21V2.79A2.79,2.79,0,0,1,2.79,0H19.21A2.79,2.79,0,0,1,22,2.79V15.21A2.79,2.79,0,0,1,19.21,18ZM2.79,2A.79.79,0,0,0,2,2.79V15.21a.79.79,0,0,0,.79.79H19.21a.79.79,0,0,0,.79-.79V2.79A.79.79,0,0,0,19.21,2Z"/><polygon class="cls-1" points="11 10.55 3.5 5.87 3.53 3.53 11 8.2 18.47 3.53 18.48 5.88 11 10.55"/></svg>